<?xml version="1.0" encoding="UTF-8"?>
<!-- Generator: https://ezgif.com/png-to-svg -->
<svg version="1.1" xmlns="http://www.w3.org/2000/svg" width="512" height="512">
<path d="M0 0 C1.45 -0 2.91 -0.01 4.36 -0.02 C8.33 -0.04 12.3 -0.03 16.27 -0.01 C20.57 -0.01 24.86 -0.02 29.15 -0.03 C37.55 -0.05 45.95 -0.04 54.35 -0.03 C61.17 -0.02 68 -0.02 74.83 -0.03 C75.8 -0.03 76.77 -0.03 77.78 -0.03 C79.75 -0.03 81.73 -0.03 83.7 -0.03 C102.22 -0.04 120.74 -0.03 139.26 -0.01 C155.14 0.01 171.02 0 186.91 -0.01 C205.36 -0.03 223.81 -0.04 242.27 -0.03 C244.24 -0.03 246.21 -0.03 248.17 -0.03 C249.63 -0.03 249.63 -0.03 251.11 -0.03 C257.93 -0.02 264.74 -0.03 271.56 -0.04 C279.87 -0.05 288.18 -0.05 296.49 -0.02 C300.73 -0.01 304.97 -0.01 309.21 -0.02 C313.09 -0.03 316.97 -0.03 320.86 -0.01 C322.26 -0 323.66 -0 325.06 -0.01 C334.42 -0.07 342.54 0.64 350.12 6.55 C351.02 7.61 351.02 7.61 351.94 8.7 C352.56 9.39 353.17 10.09 353.81 10.8 C358.36 18.08 358.93 25.34 358.82 33.74 C358.82 34.84 358.82 35.94 358.81 37.07 C358.8 40.74 358.77 44.41 358.74 48.08 C358.73 50.72 358.72 53.35 358.72 55.99 C358.7 61.66 358.67 67.33 358.64 73 C358.59 81.97 358.57 90.94 358.56 99.9 C358.56 102.98 358.55 106.05 358.55 109.12 C358.55 109.89 358.55 110.66 358.54 111.45 C358.53 120.17 358.52 128.9 358.5 137.62 C358.49 138.42 358.49 139.22 358.49 140.04 C358.46 152.96 358.39 165.88 358.32 178.81 C358.24 192.09 358.21 205.37 358.23 218.66 C358.23 226.84 358.2 235.03 358.12 243.21 C358.07 248.82 358.06 254.43 358.08 260.04 C358.1 263.28 358.09 266.51 358.03 269.74 C357.08 283.19 357.08 283.19 362.14 294.96 C364.99 297.37 368.14 298.92 371.5 300.51 C373.64 302.24 373.64 302.24 375.2 303.77 C375.7 304.26 376.2 304.75 376.72 305.26 C377.21 305.75 377.69 306.25 378.19 306.76 C378.73 307.31 379.27 307.85 379.82 308.42 C400.07 329.53 410.11 358.75 409.85 387.7 C409.02 419.23 395.48 446.92 372.85 468.5 C351.19 488.39 321.96 497.52 292.93 496.73 C274.3 495.93 257.66 490.56 241.5 481.51 C240.5 480.95 239.51 480.4 238.48 479.82 C230.93 475.32 224.79 469.57 218.5 463.51 C217.84 462.91 217.18 462.32 216.51 461.7 C197.45 444.01 187.27 415.1 186.25 389.63 C185.77 366.97 185.77 366.97 189.5 359.51 C171.02 359.51 152.54 359.51 133.5 359.51 C134.16 362.15 134.82 364.79 135.5 367.51 C139.96 396.37 133.19 426.79 116.04 450.51 C98.24 474.09 72.81 490.48 43.5 495.51 C16.98 499.2 -8.21 494.54 -31.5 481.51 C-32.5 480.95 -33.49 480.4 -34.52 479.82 C-42.07 475.32 -48.21 469.57 -54.5 463.51 C-55.16 462.91 -55.82 462.32 -56.49 461.7 C-75.44 444.11 -85.67 415.57 -86.78 390.29 C-87.58 359.38 -77.47 330.73 -56.32 308.05 C-55.22 306.91 -54.11 305.77 -53 304.63 C-52.5 304.12 -52 303.61 -51.49 303.08 C-49.12 300.74 -46.92 298.75 -44.02 297.06 C-38.75 294.05 -38.75 294.05 -35.57 289.11 C-35.23 286.2 -35.2 283.44 -35.28 280.51 C-35.27 279.42 -35.26 278.32 -35.25 277.19 C-35.22 273.51 -35.27 269.84 -35.32 266.16 C-35.32 263.53 -35.31 260.89 -35.3 258.25 C-35.28 252.58 -35.3 246.9 -35.35 241.23 C-35.41 233.01 -35.42 224.79 -35.41 216.58 C-35.39 203.23 -35.42 189.89 -35.48 176.55 C-35.54 163.61 -35.58 150.67 -35.6 137.73 C-35.6 136.93 -35.61 136.14 -35.61 135.32 C-35.62 126.62 -35.63 117.91 -35.64 109.21 C-35.64 108.45 -35.64 107.68 -35.64 106.89 C-35.64 103.83 -35.64 100.77 -35.64 97.71 C-35.65 88.76 -35.66 79.81 -35.71 70.86 C-35.73 65.25 -35.75 59.63 -35.76 54.01 C-35.76 50.78 -35.78 47.54 -35.8 44.3 C-35.82 40.79 -35.83 37.27 -35.83 33.76 C-35.85 32.23 -35.85 32.23 -35.87 30.68 C-35.84 22.48 -34.54 15 -28.94 8.7 C-28.34 7.99 -27.74 7.28 -27.12 6.55 C-18.93 0.16 -10.02 -0.07 0 0 Z " fill="#E0EDFE" transform="translate(94.49853515625,7.4920654296875)"/>
<path d="M0 0 C1.09 0.27 2.18 0.53 3.3 0.81 C12.46 3.32 20.67 7.53 29 12 C29.93 12.48 30.86 12.97 31.82 13.46 C39.17 17.54 45 23.21 51 29 C51.66 29.6 52.32 30.19 53 30.81 C71.82 48.28 82.17 77 83.29 102.15 C84.11 134.07 73.28 162.91 51.33 186.07 C30.89 206.97 2.74 218.67 -26.39 219.3 C-47.63 219.39 -66.54 214.33 -85 204 C-86 203.44 -87 202.89 -88.02 202.32 C-95.57 197.81 -101.71 192.07 -108 186 C-108.66 185.4 -109.32 184.81 -110 184.2 C-129.05 166.5 -139.23 137.6 -140.25 112.12 C-140.91 81.62 -130.07 52.75 -109.02 30.55 C-80.58 1.61 -39.56 -10.24 0 0 Z " fill="#66CAA4" transform="translate(421,285)"/>
<path d="M0 0 C0.83 0.4 1.65 0.79 2.5 1.2 C13.25 6.47 21.89 13.64 30.56 21.81 C31.17 22.35 31.77 22.89 32.39 23.45 C51.55 41.26 62.68 69.55 63.78 95.27 C64.64 126.14 54.39 154.47 33.49 177.2 C14.33 197.41 -12.74 210.55 -40.72 211.92 C-63.88 212.5 -84.22 208.13 -104.44 196.81 C-105.44 196.26 -106.43 195.7 -107.46 195.13 C-115.01 190.62 -121.15 184.88 -127.44 178.81 C-128.1 178.22 -128.75 177.62 -129.43 177.01 C-148.38 159.42 -158.61 130.87 -159.72 105.59 C-160.52 74.68 -150.4 46.03 -129.26 23.36 C-119.77 13.46 -109.86 6.67 -97.44 0.81 C-95.91 0.04 -95.91 0.04 -94.35 -0.75 C-65.42 -15.02 -28.85 -13.82 0 0 Z " fill="#EB6374" transform="translate(167.4375,292.1875)"/>
<path d="M0 0 C1.45 -0 2.91 -0.01 4.36 -0.02 C8.33 -0.04 12.3 -0.03 16.27 -0.01 C20.57 -0.01 24.86 -0.02 29.15 -0.03 C37.55 -0.05 45.95 -0.04 54.35 -0.03 C61.17 -0.02 68 -0.02 74.83 -0.03 C75.8 -0.03 76.77 -0.03 77.78 -0.03 C79.75 -0.03 81.73 -0.03 83.7 -0.03 C102.22 -0.04 120.74 -0.03 139.26 -0.01 C155.14 0.01 171.02 0 186.91 -0.01 C205.36 -0.03 223.81 -0.04 242.27 -0.03 C244.24 -0.03 246.21 -0.03 248.17 -0.03 C249.63 -0.03 249.63 -0.03 251.11 -0.03 C257.93 -0.02 264.74 -0.03 271.56 -0.04 C279.87 -0.05 288.18 -0.05 296.49 -0.02 C300.73 -0.01 304.97 -0.01 309.21 -0.02 C313.09 -0.03 316.97 -0.03 320.86 -0.01 C322.26 -0 323.66 -0 325.06 -0.01 C334.42 -0.07 342.54 0.64 350.12 6.55 C351.02 7.61 351.02 7.61 351.94 8.7 C352.56 9.39 353.17 10.09 353.81 10.8 C364.35 27.67 358.5 52.74 358.5 69.51 C228.48 69.51 98.46 69.51 -35.5 69.51 C-35.5 16.08 -35.5 16.08 -28.94 8.7 C-28.34 7.99 -27.74 7.28 -27.12 6.55 C-18.93 0.16 -10.02 -0.07 0 0 Z " fill="#49508E" transform="translate(94.49853515625,7.4920654296875)"/>
<path d="M0 0 C2.94 2.12 2.94 2.12 5 5 C5.48 9.07 4.92 10.82 2.41 14.05 C-4.69 21.8 -12.11 29.22 -19.56 36.62 C-20.87 37.93 -22.18 39.23 -23.49 40.54 C-26.65 43.69 -29.83 46.85 -33 50 C-28.94 54.89 -24.66 59.46 -20.14 63.92 C-19.51 64.55 -18.88 65.18 -18.23 65.82 C-16.24 67.8 -14.25 69.78 -12.25 71.75 C-9.61 74.37 -6.97 76.99 -4.33 79.61 C-3.42 80.5 -3.42 80.5 -2.49 81.42 C-1.93 81.98 -1.37 82.53 -0.79 83.11 C-0.3 83.6 0.19 84.08 0.7 84.59 C3.82 87.98 4.45 90.49 4.31 95.06 C4 97 4 97 2.38 99.44 C-0.61 101.4 -2.41 102 -6 102 C-11.49 98.92 -15.63 94.63 -20.02 90.17 C-20.77 89.42 -21.52 88.67 -22.28 87.9 C-24.65 85.52 -27.01 83.14 -29.38 80.75 C-30.99 79.13 -32.6 77.51 -34.21 75.89 C-38.14 71.93 -42.07 67.97 -46 64 C-50.95 68.15 -55.58 72.47 -60.11 77.08 C-61.43 78.42 -62.76 79.76 -64.08 81.09 C-66.15 83.18 -68.21 85.27 -70.27 87.36 C-72.27 89.4 -74.28 91.43 -76.29 93.45 C-76.91 94.08 -77.52 94.71 -78.15 95.35 C-78.73 95.93 -79.31 96.52 -79.9 97.11 C-80.41 97.62 -80.91 98.14 -81.43 98.66 C-84.49 101.27 -86.44 102.01 -90.5 101.94 C-94 101 -94 101 -96.44 98.81 C-98.29 95.47 -98.39 93.78 -98 90 C-96.56 87.76 -96.56 87.76 -94.44 85.57 C-93.62 84.71 -92.8 83.85 -91.95 82.97 C-90.97 81.98 -89.98 80.99 -89 80 C-87.85 78.83 -86.69 77.65 -85.54 76.48 C-81.7 72.59 -77.82 68.73 -73.94 64.88 C-72.58 63.52 -71.23 62.17 -69.87 60.82 C-66.58 57.54 -63.29 54.27 -60 51 C-64.15 46.05 -68.47 41.42 -73.08 36.89 C-74.42 35.57 -75.76 34.24 -77.09 32.92 C-79.18 30.85 -81.27 28.79 -83.36 26.73 C-85.4 24.73 -87.43 22.72 -89.45 20.71 C-90.08 20.09 -90.71 19.48 -91.35 18.85 C-91.93 18.27 -92.52 17.69 -93.11 17.1 C-93.62 16.59 -94.14 16.09 -94.66 15.57 C-97.09 12.72 -98.03 10.77 -97.88 7 C-96.83 3.43 -96.1 2.07 -93 0 C-89.56 -0.77 -88.25 -1 -85 0 C-75.97 6.6 -68.24 15.64 -60.38 23.56 C-59.07 24.87 -57.77 26.18 -56.46 27.49 C-53.31 30.65 -50.15 33.83 -47 37 C-42.13 32.95 -37.58 28.7 -33.15 24.18 C-31.87 22.89 -30.6 21.6 -29.32 20.31 C-27.34 18.3 -25.36 16.3 -23.38 14.29 C-21.45 12.33 -19.52 10.38 -17.59 8.43 C-16.71 7.53 -16.71 7.53 -15.81 6.61 C-6.94 -2.31 -6.94 -2.31 0 0 Z " fill="#FEF9FA" transform="translate(166,342)"/>
<path d="M0 0 C0.75 0.01 1.51 0.03 2.28 0.04 C3.03 0.03 3.79 0.01 4.56 0 C7.91 1 8.9 2.77 10.78 5.66 C11.29 9.04 11.29 9.04 11.3 12.98 C11.31 13.71 11.32 14.44 11.32 15.19 C11.34 17.62 11.34 20.05 11.33 22.48 C11.34 24.22 11.35 25.97 11.36 27.71 C11.39 32.45 11.39 37.18 11.39 41.91 C11.39 46.86 11.42 51.81 11.44 56.75 C11.48 66.12 11.5 75.49 11.51 84.86 C11.53 95.52 11.57 106.19 11.61 116.85 C11.69 138.79 11.75 160.73 11.78 182.66 C5.84 181.67 -0.1 180.68 -6.22 179.66 C-6.31 157.06 -6.38 134.46 -6.43 111.86 C-6.45 101.37 -6.47 90.88 -6.52 80.38 C-6.56 71.24 -6.59 62.09 -6.6 52.95 C-6.6 48.1 -6.61 43.26 -6.64 38.42 C-6.67 33.86 -6.68 29.3 -6.67 24.74 C-6.67 23.07 -6.68 21.4 -6.7 19.72 C-6.72 17.44 -6.71 15.16 -6.7 12.87 C-6.7 11.59 -6.71 10.31 -6.71 9 C-6.07 4.63 -4.42 1.32 0 0 Z " fill="#B1CADC" transform="translate(134.21875,102.3359375)"/>
<path d="M0 0 C3.44 0.79 5.04 1.97 7.44 4.56 C8.69 7.62 8.69 7.62 8.44 11.56 C6.56 15.53 3.99 19.01 1.44 22.56 C0.55 23.82 -0.33 25.08 -1.21 26.35 C-3.22 29.21 -5.23 32.07 -7.26 34.91 C-10.68 39.72 -14.06 44.54 -17.44 49.38 C-18.02 50.21 -18.61 51.05 -19.21 51.91 C-20.4 53.61 -21.59 55.31 -22.78 57.01 C-24.54 59.53 -26.31 62.05 -28.07 64.57 C-28.65 65.4 -29.22 66.22 -29.82 67.07 C-30.98 68.72 -32.13 70.38 -33.29 72.03 C-36.34 76.38 -39.38 80.74 -42.38 85.12 C-43.32 86.49 -43.32 86.49 -44.28 87.88 C-45.48 89.62 -46.67 91.37 -47.86 93.12 C-53.58 101.4 -53.58 101.4 -57.56 103.56 C-64.23 103.5 -67.15 100.89 -71.59 96.4 C-72.22 95.78 -72.86 95.16 -73.51 94.51 C-74.84 93.2 -76.16 91.87 -77.48 90.54 C-79.49 88.51 -81.54 86.52 -83.6 84.53 C-84.89 83.24 -86.18 81.95 -87.46 80.65 C-88.38 79.77 -88.38 79.77 -89.32 78.86 C-92.3 75.79 -93.94 73.69 -94.07 69.31 C-93.56 65.56 -93.56 65.56 -91.5 62.5 C-88.56 60.56 -88.56 60.56 -85.25 60.31 C-80.17 62.03 -77.32 64.82 -73.56 68.56 C-73.06 69.06 -72.56 69.56 -72.04 70.07 C-68.52 73.54 -65.03 77.04 -61.56 80.56 C-53.5 70.15 -46.08 59.31 -38.59 48.49 C-34.99 43.29 -31.36 38.12 -27.73 32.95 C-24.72 28.66 -21.74 24.37 -18.79 20.05 C-18.17 19.14 -17.54 18.23 -16.9 17.3 C-15.71 15.57 -14.53 13.83 -13.35 12.09 C-5.91 1.3 -5.91 1.3 0 0 Z " fill="#FCFEFD" transform="translate(435.5625,340.4375)"/>
<path d="M0 0 C0.99 -0 1.99 -0 3.01 -0.01 C4.72 -0.03 4.72 -0.03 6.47 -0.05 C7.72 -0.04 8.97 -0.03 10.26 -0.02 C11.58 -0.03 12.9 -0.04 14.25 -0.04 C17.87 -0.07 21.49 -0.06 25.1 -0.04 C28.89 -0.03 32.67 -0.04 36.46 -0.05 C42.81 -0.06 49.17 -0.05 55.53 -0.02 C62.88 0 70.22 -0 77.57 -0.03 C83.88 -0.05 90.19 -0.06 96.5 -0.04 C100.27 -0.04 104.04 -0.04 107.8 -0.05 C111.35 -0.07 114.89 -0.06 118.43 -0.03 C120.35 -0.02 122.27 -0.03 124.19 -0.05 C133.57 0.07 133.57 0.07 136.67 2.98 C138.81 6.26 139.12 7.79 138.4 11.63 C136.25 14.97 135.19 16.36 131.4 17.63 C129.62 17.73 127.84 17.77 126.07 17.78 C124.41 17.8 124.41 17.8 122.71 17.81 C121.5 17.81 120.29 17.82 119.04 17.82 C117.76 17.83 116.48 17.84 115.16 17.85 C110.92 17.87 106.68 17.89 102.44 17.9 C100.98 17.91 99.52 17.91 98.06 17.92 C91.98 17.94 85.91 17.96 79.83 17.97 C71.13 17.99 62.42 18.02 53.72 18.08 C47.6 18.12 41.48 18.14 35.35 18.14 C31.7 18.14 28.04 18.16 24.39 18.19 C20.31 18.22 16.23 18.22 12.15 18.21 C10.34 18.24 10.34 18.24 8.49 18.26 C-0.64 18.19 -0.64 18.19 -4.36 15.31 C-6.6 12.63 -6.6 12.63 -7.23 9.13 C-6.4 4.5 -4.82 1.17 0 0 Z " fill="#68CAA5" transform="translate(194.60218715667725,170.37079429626465)"/>
<path d="M0 0 C0.96 -0.01 1.92 -0.01 2.9 -0.02 C6.07 -0.03 9.23 -0 12.39 0.02 C14.59 0.02 16.79 0.02 18.99 0.02 C23.6 0.02 28.21 0.04 32.82 0.07 C38.73 0.11 44.64 0.12 50.55 0.11 C55.09 0.11 59.63 0.12 64.18 0.14 C66.36 0.14 68.54 0.15 70.71 0.15 C73.76 0.15 76.8 0.17 79.85 0.2 C81.2 0.19 81.2 0.19 82.57 0.19 C87.33 0.25 90.6 0.48 94.42 3.62 C96.42 6.62 96.42 6.62 96.36 10.05 C95.2 14.45 94.31 15.31 90.42 17.62 C87.2 18.2 84.03 18.17 80.76 18.15 C79.79 18.16 78.82 18.17 77.82 18.17 C74.63 18.2 71.43 18.19 68.24 18.18 C66.01 18.19 63.79 18.19 61.57 18.2 C56.91 18.21 52.25 18.21 47.6 18.19 C41.63 18.17 35.66 18.2 29.69 18.23 C25.1 18.26 20.51 18.25 15.92 18.25 C13.72 18.24 11.52 18.25 9.32 18.27 C6.24 18.28 3.17 18.27 0.09 18.25 C-0.82 18.26 -1.73 18.27 -2.66 18.28 C-7.1 18.21 -9 18.05 -12.64 15.29 C-14.58 12.62 -14.58 12.62 -15.2 9.12 C-13.64 0.35 -7.54 -0.11 0 0 Z " fill="#66CAA4" transform="translate(219.576171875,272.384765625)"/>
<path d="M0 0 C0.9 -0.01 1.8 -0.01 2.73 -0.02 C5.7 -0.04 8.68 -0.02 11.65 0 C13.72 0 15.79 -0 17.86 -0.01 C22.19 -0.01 26.52 0.01 30.85 0.03 C36.4 0.07 41.96 0.06 47.51 0.04 C51.78 0.03 56.05 0.04 60.32 0.06 C62.37 0.06 64.42 0.06 66.47 0.06 C69.33 0.05 72.19 0.07 75.05 0.1 C76.32 0.09 76.32 0.09 77.61 0.08 C83.35 0.17 83.35 0.17 86.48 2.54 C88.53 5.44 88.52 7.28 88.36 10.73 C87.75 13.63 86.29 14.91 83.96 16.63 C80.71 18.26 77.12 17.8 73.55 17.81 C72.24 17.82 72.24 17.82 70.91 17.83 C68.03 17.85 65.14 17.86 62.25 17.87 C61.27 17.87 60.28 17.88 59.27 17.88 C54.05 17.9 48.84 17.92 43.63 17.93 C38.24 17.94 32.86 17.97 27.47 18.01 C23.33 18.04 19.19 18.05 15.05 18.05 C13.07 18.05 11.08 18.07 9.09 18.08 C6.31 18.11 3.54 18.11 0.76 18.1 C-0.06 18.11 -0.88 18.13 -1.73 18.14 C-5.7 18.1 -7.59 17.92 -11.03 15.73 C-13.42 13.24 -13.96 12.23 -14.42 8.82 C-14.04 5.63 -14.04 5.63 -12.08 2.97 C-7.96 -0.2 -5.06 -0.07 0 0 Z " fill="#69CAA6" transform="translate(193.041259765625,136.368896484375)"/>
<path d="M0 0 C0.87 -0 1.74 -0.01 2.64 -0.02 C5.52 -0.03 8.41 -0.04 11.3 -0.04 C13.3 -0.05 15.3 -0.05 17.31 -0.06 C21.51 -0.07 25.71 -0.08 29.92 -0.08 C35.31 -0.08 40.69 -0.11 46.08 -0.14 C50.22 -0.16 54.36 -0.16 58.5 -0.16 C60.48 -0.17 62.47 -0.17 64.46 -0.19 C67.23 -0.2 70.01 -0.2 72.79 -0.2 C74.02 -0.21 74.02 -0.21 75.28 -0.22 C79.87 -0.19 82.86 0.19 86.59 3.16 C88.16 6.29 88.29 9.77 87.59 13.16 C85.95 15.51 84.63 16.95 81.75 17.53 C79.38 17.68 77.04 17.69 74.66 17.66 C73.76 17.67 72.86 17.67 71.93 17.68 C68.95 17.69 65.98 17.68 63 17.66 C60.93 17.66 58.86 17.66 56.79 17.66 C52.45 17.66 48.11 17.65 43.77 17.63 C38.21 17.6 32.65 17.6 27.09 17.61 C22.81 17.62 18.54 17.61 14.27 17.6 C12.22 17.6 10.17 17.6 8.11 17.6 C5.25 17.6 2.38 17.59 -0.48 17.57 C-1.76 17.57 -1.76 17.57 -3.05 17.58 C-6.58 17.53 -8.81 17.5 -11.92 15.75 C-14.17 13.34 -14.32 11.36 -14.59 8.17 C-14.3 4.94 -12.7 3.32 -10.41 1.16 C-7.16 -0.47 -3.58 0 0 0 Z " fill="#69CAA6" transform="translate(176.409423828125,101.8388671875)"/>
<path d="M0 0 C0.89 -0.01 1.78 -0.01 2.7 -0.02 C5.63 -0.04 8.57 -0.02 11.5 0 C13.55 0 15.59 -0 17.63 -0.01 C21.92 -0.01 26.2 0.01 30.48 0.03 C35.96 0.07 41.44 0.06 46.93 0.04 C51.15 0.03 55.37 0.04 59.59 0.06 C61.61 0.06 63.63 0.06 65.65 0.06 C68.48 0.05 71.31 0.07 74.13 0.1 C74.97 0.09 75.8 0.08 76.66 0.08 C80.66 0.14 82.62 0.35 86.09 2.54 C88.07 4.63 88.07 4.63 88.66 6.63 C88.46 10.8 88.3 13.64 85.07 16.63 C81.21 17.92 77.56 17.79 73.54 17.81 C72.67 17.81 71.8 17.82 70.91 17.83 C68.02 17.85 65.14 17.86 62.26 17.87 C60.79 17.88 60.79 17.88 59.28 17.88 C54.07 17.9 48.87 17.92 43.66 17.93 C38.28 17.94 32.9 17.97 27.53 18.01 C23.39 18.04 19.26 18.05 15.12 18.05 C13.14 18.05 11.15 18.07 9.17 18.08 C6.4 18.11 3.62 18.11 0.85 18.1 C-0.38 18.12 -0.38 18.12 -1.63 18.14 C-5.6 18.1 -7.49 17.91 -10.92 15.73 C-13.31 13.24 -13.85 12.23 -14.31 8.82 C-13.93 5.63 -13.93 5.63 -11.97 2.97 C-7.88 -0.18 -5.03 -0.07 0 0 Z " fill="#67CAA5" transform="translate(175.93359375,204.368896484375)"/>
<path d="M0 0 C1.34 -0.01 1.34 -0.01 2.7 -0.02 C5.63 -0.04 8.57 -0.01 11.5 0.02 C13.55 0.02 15.59 0.02 17.63 0.02 C21.92 0.02 26.2 0.04 30.48 0.07 C35.96 0.12 41.44 0.12 46.93 0.11 C51.15 0.1 55.37 0.11 59.59 0.13 C61.61 0.14 63.63 0.14 65.65 0.14 C68.48 0.14 71.31 0.16 74.13 0.2 C74.97 0.19 75.8 0.19 76.66 0.18 C80.65 0.25 82.63 0.47 86.09 2.64 C88.07 4.74 88.07 4.74 88.66 7 C88.63 7.76 88.6 8.52 88.57 9.31 C88.56 10.07 88.55 10.84 88.54 11.62 C87.96 14.23 87.15 15.12 85.07 16.74 C81.21 18.03 77.56 17.91 73.54 17.92 C72.67 17.93 71.8 17.93 70.91 17.94 C68.02 17.96 65.14 17.97 62.26 17.98 C60.79 17.99 60.79 17.99 59.28 18 C54.07 18.02 48.87 18.03 43.66 18.04 C38.28 18.05 32.9 18.09 27.53 18.12 C23.39 18.15 19.26 18.16 15.12 18.16 C13.14 18.17 11.15 18.18 9.17 18.2 C6.4 18.22 3.62 18.22 0.85 18.21 C-0.38 18.23 -0.38 18.23 -1.63 18.25 C-5.54 18.22 -7.5 18.01 -10.91 15.93 C-13.76 12.85 -14.08 10.91 -13.93 6.74 C-10.1 0.49 -7.09 -0.13 0 0 Z " fill="#66CAA4" transform="translate(192.93359375,238.25537109375)"/>
<path d="M0 0 C1.22 -0 2.45 -0 3.71 -0 C6.29 -0 8.88 0.01 11.47 0.03 C15.42 0.06 19.38 0.05 23.34 0.04 C25.85 0.04 28.36 0.05 30.88 0.06 C32.06 0.06 33.24 0.06 34.46 0.05 C35.57 0.07 36.67 0.08 37.81 0.09 C38.78 0.1 39.75 0.1 40.74 0.11 C43.96 0.57 45.82 1.58 48.44 3.5 C50.44 6.5 50.44 6.5 50.38 9.93 C49.24 14.24 48.12 15.12 44.44 17.5 C41.66 18 41.66 18 38.61 18.01 C37.46 18.03 36.31 18.04 35.13 18.05 C33.9 18.04 32.67 18.04 31.4 18.03 C30.13 18.03 28.86 18.03 27.55 18.04 C24.87 18.04 22.18 18.04 19.5 18.02 C16.06 17.99 12.63 18.01 9.19 18.03 C5.91 18.05 2.62 18.04 -0.66 18.03 C-1.89 18.04 -3.12 18.04 -4.39 18.05 C-5.54 18.04 -6.68 18.03 -7.86 18.01 C-8.87 18.01 -9.88 18.01 -10.91 18 C-14.27 17.36 -15.46 16.14 -17.56 13.5 C-18.13 11.28 -18.13 11.28 -18.12 9 C-18.15 8.24 -18.17 7.49 -18.19 6.71 C-15.87 -1.46 -6.77 -0.06 0 0 Z " fill="#2E3360" transform="translate(376.5625,33.50390625)"/>
<path d="M0 0 C1.87 -0.01 1.87 -0.01 3.77 -0.01 C7.07 -0.02 10.37 0 13.67 0.03 C15.69 0.04 17.71 0.03 19.72 0.01 C23.61 -0.02 27.49 -0.01 31.38 0 C32.58 -0.01 33.78 -0.02 35.01 -0.03 C44.3 0.1 44.3 0.1 48.02 3.02 C50.25 5.66 50.25 5.66 50.88 8.66 C50.12 12.29 48.82 14.03 46.25 16.66 C43.67 17.96 41.77 17.82 38.87 17.86 C37.19 17.88 37.19 17.88 35.47 17.91 C30.32 17.95 25.17 17.99 20.02 18.01 C17.31 18.03 14.59 18.06 11.87 18.1 C7.96 18.16 4.05 18.17 0.14 18.19 C-1.07 18.21 -2.29 18.23 -3.54 18.26 C-12.92 18.23 -12.92 18.23 -16.01 15.35 C-18.32 11.78 -18.49 9.84 -17.75 5.66 C-13.4 -1.01 -7.38 -0.06 0 0 Z " fill="#F8C84F" transform="translate(316.74609375,238.3359375)"/>
<path d="M0 0 C1.16 -0.02 2.33 -0.03 3.53 -0.05 C4.78 -0.04 6.04 -0.04 7.33 -0.03 C9.27 -0.04 9.27 -0.04 11.25 -0.05 C13.98 -0.06 16.71 -0.06 19.44 -0.04 C22.94 -0.03 26.43 -0.05 29.93 -0.08 C33.27 -0.11 36.61 -0.1 39.96 -0.1 C41.83 -0.12 41.83 -0.12 43.75 -0.14 C53.4 -0.03 53.4 -0.03 56.5 2.89 C58.63 6.18 59.01 7.69 58.21 11.53 C56.04 14.11 54.23 16.02 51.21 17.53 C49.49 17.65 47.76 17.7 46.03 17.73 C44.95 17.74 43.87 17.76 42.75 17.77 C37.8 17.82 32.84 17.86 27.89 17.88 C25.28 17.9 22.66 17.93 20.05 17.97 C16.29 18.02 12.52 18.04 8.76 18.06 C7.01 18.09 7.01 18.09 5.22 18.13 C-3.83 18.1 -3.83 18.1 -7.53 15.13 C-10.58 11.63 -10.58 11.63 -10.42 8.47 C-9.38 1.92 -6.45 0.04 0 0 Z " fill="#F8C852" transform="translate(308.790771484375,136.466552734375)"/>
<path d="M0 0 C1.62 -0.03 1.62 -0.03 3.27 -0.06 C11.13 -0.01 11.13 -0.01 15.21 2.98 C17.42 6.25 17.73 7.75 17 11.62 C15.2 14.32 13.92 16.17 11 17.62 C7.4 17.92 3.8 17.9 0.19 17.94 C-0.81 17.97 -1.81 18 -2.84 18.03 C-10.23 18.09 -10.23 18.09 -14.14 15.73 C-16.35 13.23 -16.93 12.13 -17.38 8.81 C-17 5.62 -17 5.62 -15.23 2.96 C-10.35 -0.57 -5.87 -0.11 0 0 Z " fill="#EA6677" transform="translate(401,136.375)"/>
<path d="M0 0 C1.05 -0.02 1.05 -0.02 2.12 -0.04 C6.05 0.02 7.86 0.58 10.96 3.04 C13 5.69 13 5.69 13.56 8.69 C12.88 12.35 11.57 14.04 9 16.69 C6.08 18.15 3.44 17.94 0.19 18 C-1.65 18.06 -1.65 18.06 -3.52 18.11 C-7.6 17.61 -9.17 16.61 -12 13.69 C-13.12 10.31 -13.12 10.31 -13 6.69 C-9.45 1.05 -6.72 -0.27 0 0 Z " fill="#B2CCDD" transform="translate(98,204.3125)"/>
<path d="M0 0 C0.7 -0.02 1.41 -0.05 2.13 -0.07 C6.1 -0.06 7.89 0.43 11.03 2.91 C13.06 5.56 13.06 5.56 13.62 8.56 C12.94 12.22 11.64 13.91 9.06 16.56 C4.41 18.89 -1.88 18.11 -6.94 17.56 C-9.54 16.15 -10.27 15.09 -11.94 12.56 C-12.27 12.23 -12.6 11.9 -12.94 11.56 C-12.73 7.94 -12.51 5.36 -10.38 2.37 C-7.03 -0.11 -4.02 -0.06 0 0 Z " fill="#B2CCDE" transform="translate(97.9375,170.4375)"/>
<path d="M0 0 C1.13 -0.04 2.26 -0.07 3.43 -0.11 C7.33 0.4 8.91 1.58 11.69 4.31 C13.13 7.2 13.06 9.11 12.69 12.31 C9.91 15.98 8.44 17.19 3.84 17.94 C2.43 17.95 1.03 17.92 -0.38 17.88 C-1.08 17.89 -1.79 17.9 -2.52 17.91 C-5.96 17.86 -7.96 17.57 -10.74 15.49 C-13 12.36 -13.38 10.16 -13.31 6.31 C-9.15 1.13 -6.46 0.14 0 0 Z " fill="#B2CCDE" transform="translate(98.3125,101.6875)"/>
<path d="M0 0 C1.2 -0.01 2.39 -0.02 3.62 -0.03 C7.58 0.59 9.24 1.65 12 4.5 C12.94 7.99 13.37 10.35 12.25 13.81 C11 15.5 11 15.5 8 17.5 C5.32 17.8 2.81 17.96 0.12 18 C-0.58 18.04 -1.29 18.08 -2.02 18.12 C-4.92 18.17 -7.27 18.06 -9.62 16.26 C-12.18 13.36 -12.99 11.78 -13.12 7.88 C-10.91 1.22 -6.64 -0.06 0 0 Z " fill="#FAFAFB" transform="translate(98,33.5)"/>
<path d="M0 0 C3.18 1.27 3.89 2.15 6 5 C6.92 8.95 6.14 10.7 4.44 14.38 C2.21 16.82 0.84 17.02 -2.5 17.52 C-12.47 17.96 -12.47 17.96 -16.9 15.18 C-19.81 12.16 -20.07 10.15 -20 6 C-15.16 -1.68 -8.4 -0.84 0 0 Z " fill="#B2CBDD" transform="translate(105,239)"/>
<path d="M0 0 C0.7 -0.02 1.41 -0.05 2.13 -0.07 C6.1 -0.06 7.89 0.43 11.03 2.91 C13.06 5.56 13.06 5.56 13.69 8.56 C12.86 12.53 11.13 14.01 8.06 16.56 C5.39 17.9 3.24 17.77 0.25 17.81 C-0.79 17.84 -1.83 17.86 -2.89 17.89 C-6.34 17.52 -8.16 16.58 -10.94 14.56 C-12.87 12.02 -12.95 10.78 -12.81 7.56 C-10.81 0.69 -6.59 -0.1 0 0 Z " fill="#B2CCDE" transform="translate(97.9375,136.4375)"/>
<path d="M0 0 C3.37 1.23 3.93 1.89 6 5 C6.55 9.27 6.6 11.22 3.94 14.69 C0.23 17.6 -1.83 17.67 -6.5 17.62 C-8.43 17.64 -8.43 17.64 -10.41 17.66 C-14.81 16.85 -16.29 15.51 -19 12 C-19.75 7.79 -19.44 5.8 -17.38 2.06 C-11.98 -1.23 -6.17 -0.7 0 0 Z " fill="#FBFBFC" transform="translate(190,34)"/>
<path d="M0 0 C2.26 1.17 4.2 2.2 6 4 C6.27 5.93 6.27 5.93 6.38 8.31 C6.45 9.48 6.45 9.48 6.52 10.68 C6 13 6 13 3.95 15.26 C0.23 17.45 -2.27 17.53 -6.56 17.5 C-7.86 17.51 -9.16 17.52 -10.5 17.53 C-14.47 16.93 -15.61 16.13 -18 13 C-19.46 10.07 -19.45 8.24 -19 5 C-14.16 -1.36 -7.52 -1.13 0 0 Z " fill="#FBFBFC" transform="translate(147,34)"/>
</svg>
